# Blender 3.3.0
# www.blender.org
mtllib Rock005.mtl
g Stone_Mesh
v -0.263886 -0.087651 0.196617
v -0.341799 0.051951 0.478509
v -0.389792 0.136005 0.468070
v -0.341924 -0.018740 -0.232144
v 0.006155 0.324213 -0.237279
v -0.725234 0.106933 -0.004988
v 0.132694 -0.010887 0.002339
v 0.852899 0.216042 0.284723
v 1.067282 0.339003 0.139057
v 0.334307 0.292149 -0.188181
v 0.525441 0.438327 -0.118847
v -0.144952 0.247157 -0.326807
v 0.644794 0.397873 -0.101764
v -0.694838 0.177886 -0.049863
v -0.625336 0.237612 0.126495
v -0.084717 0.406867 -0.004466
v 0.415616 0.458809 0.101997
v 0.411882 0.195960 0.538902
v -0.200584 0.352853 0.412053
v -0.238013 0.273144 0.528577
v -0.699335 0.155576 0.304122
v -0.703349 0.046613 0.210883
v -0.536328 0.174270 -0.225031
v -0.556016 0.038705 -0.274646
v 0.231290 -0.041397 -0.172963
v -0.603548 -0.031251 -0.115027
v 0.517047 0.032174 0.229857
v 0.155579 -0.037056 0.315169
v 0.925416 0.330944 -0.282780
v 1.170050 0.314733 -0.002118
v 1.093534 0.236569 0.072166
v -0.152537 -0.081924 -0.349080
v 0.078567 0.200221 -0.409415
v -0.210692 0.058079 -0.415615
v 0.561036 0.098842 -0.409439
v -0.427013 0.350915 0.182898
v 0.342509 0.261311 0.521605
v 0.094267 0.056300 0.515219
v -0.727151 0.037199 0.005304
v -0.503004 0.159491 0.455370
v 0.351170 0.047953 -0.383149
v 0.934134 0.186718 -0.244312
v -0.164666 -0.105540 -0.168492
v 0.906990 0.403035 -0.143489
v 1.075816 0.277967 -0.216053
v 0.961117 0.385289 0.256065
v 1.129260 0.390086 0.054323
v 0.576260 0.387964 0.411339
v 1.010241 0.289028 0.278583
v 0.551915 0.224280 -0.421944
v -0.498525 -0.023110 0.338109
v 0.925564 0.115233 -0.102584
v 0.099187 0.397803 -0.203358
v 0.251142 0.421259 0.346453
v 0.753777 0.177722 0.342294
v -0.393045 -0.118159 -0.038428
v 0.667408 0.051231 -0.041531
v 0.364252 0.453477 0.091067
v 0.377675 0.424279 -0.148144
v 0.345129 0.404746 -0.129524
v 0.308364 0.417690 -0.161886
v -0.201012 0.026757 0.432274
v -0.236999 0.110846 0.482952
v -0.275238 0.052615 0.484113
v -0.252645 0.057591 0.477480
v -0.241762 0.052949 0.486931
v 0.708098 0.138843 0.261665
v 0.711863 0.147800 0.257209
v 0.731827 0.149759 0.264944
v 0.763647 0.136740 0.127741
vn -0.5306 0.6705 0.5186
vn -0.1208 0.9898 0.0750
vn 0.4163 0.6184 0.6666
vn 0.3230 -0.8158 0.4797
vn -0.3568 0.8340 -0.4208
vn -0.4524 0.7971 0.4000
vn -0.2267 -0.9206 0.3180
vn -0.4095 0.7551 0.5120
vn -0.1520 -0.8878 -0.4344
vn -0.2574 0.9034 -0.3430
vn -0.7655 0.3163 -0.5604
vn -0.2933 -0.9547 -0.0509
vn 0.2707 -0.9318 -0.2417
vn 0.1484 -0.9378 -0.3140
vn 0.1451 -0.9850 -0.0930
vn -0.0161 -0.8978 0.4402
vn 0.3112 -0.9269 -0.2099
vn 0.0249 0.9987 0.0445
vn 0.7597 0.1338 0.6364
vn 0.6489 0.6489 -0.3973
vn 0.8082 -0.0036 0.5889
vn 0.7343 0.4857 0.4742
vn 0.9266 -0.0080 0.3759
vn 0.4214 -0.8978 0.1281
vn 0.0451 -0.4135 -0.9094
vn -0.3133 0.6671 -0.6759
vn -0.0566 0.9435 -0.3266
vn 0.4183 0.8068 -0.4172
vn -0.1093 0.8016 -0.5878
vn 0.2023 0.1911 -0.9605
vn -0.4016 0.8836 0.2408
vn -0.2550 0.9419 -0.2185
vn -0.1183 0.9903 0.0726
vn 0.4476 -0.8740 0.1889
vn -0.0642 0.7200 0.6910
vn 0.4067 0.0438 0.9125
vn -0.4082 -0.5848 0.7010
vn -0.9952 -0.0401 0.0897
vn -0.2890 -0.9542 0.0772
vn -0.9926 0.0439 0.1129
vn -0.2628 0.9300 -0.2570
vn -0.7385 -0.1049 -0.6661
vn -0.3926 -0.9082 -0.1451
vn 0.2412 -0.9642 -0.1099
vn 0.4542 -0.8703 0.1905
vn 0.1658 -0.9817 -0.0942
vn -0.0260 -0.9089 0.4162
vn 0.4488 0.8165 -0.3632
vn 0.3774 -0.0895 -0.9217
vn 0.5529 -0.8271 -0.1014
vn 0.7775 -0.1919 0.5989
vn -0.2721 0.3085 -0.9115
vn -0.0907 0.0376 0.9952
vn 0.0236 0.8216 0.5696
vn 0.0027 -0.4062 0.9138
vn -0.8208 -0.3915 -0.4160
vn -0.0844 0.0752 0.9936
vn -0.1584 -0.2465 0.9561
vn -0.3278 -0.9255 0.1898
vn -0.5708 -0.2490 0.7824
vn -0.2975 0.3659 -0.8818
vn 0.3207 -0.9062 0.2755
vn 0.0253 -0.8930 0.4492
vn 0.1574 -0.9541 0.2546
vn 0.7327 -0.6245 -0.2707
vn 0.3742 0.0114 0.9273
vn 0.1161 -0.8896 -0.4417
vn 0.4478 -0.4573 -0.7684
vn -0.1416 -0.8730 -0.4668
vn 0.4022 -0.8354 0.3746
vn -0.0694 0.9898 -0.1247
vn 0.0563 -0.0711 -0.9959
vn -0.4478 0.7731 -0.4492
vn 0.1661 0.2319 -0.9585
vn -0.0983 -0.1058 -0.9895
vn -0.0170 0.9997 0.0170
vn 0.3117 0.9478 0.0671
vn -0.7773 0.6282 -0.0337
vn 0.2550 -0.8158 0.5191
vn 0.0620 0.9794 0.1921
vn -0.1313 0.9839 0.1215
vn -0.2339 -0.8385 -0.4921
vn -0.4650 -0.8086 0.3605
vn 0.0976 -0.9924 0.0752
vn 0.1961 -0.9798 0.0398
vn -0.0779 0.8812 -0.4664
vn 0.3649 -0.0660 -0.9287
vn -0.0532 0.7995 -0.5983
vn 0.6086 -0.7716 -0.1850
vn 0.2097 -0.9601 -0.1849
vn 0.1675 0.2351 -0.9574
vn -0.6252 0.4070 -0.6659
vn 0.6879 0.2822 -0.6687
vn 0.4958 0.8380 -0.2281
vn -0.5643 0.8151 -0.1312
vn -0.0691 0.9896 -0.1261
vn 0.3146 -0.1880 0.9304
vn -0.6263 0.1046 0.7725
vn -0.4537 -0.8869 0.0867
vn 0.3444 -0.5445 0.7648
vn -0.0441 -0.9354 0.3507
vn 0.8431 -0.4774 -0.2474
vn 0.4608 -0.8730 0.1599
vn 0.9054 -0.1922 0.3786
vn 0.0559 -0.9927 0.1071
vn 0.4481 -0.8742 0.1869
vn -0.3727 0.8190 -0.4362
vn 0.4371 -0.8780 0.1951
vn -0.0985 0.1556 0.9829
vn -0.0129 0.7350 0.6779
vn -0.7182 -0.0822 -0.6910
vn -0.5831 -0.2364 0.7773
vn 0.3002 -0.8941 0.3322
vn 0.1146 0.2813 0.9527
vn -0.5660 -0.5337 -0.6283
vn -0.0779 0.9901 -0.1171
vn -0.0159 -0.1975 -0.9802
vn 0.0222 0.9989 0.0404
vn 0.3053 0.9504 0.0591
vn -0.8595 0.4797 0.1763
vn 0.2777 -0.8065 0.5219
vn -0.1766 -0.8560 -0.4859
vn 0.2419 -0.9637 0.1129
vn 0.0067 -0.9845 0.1751
vn -0.1444 0.9062 -0.3975
vn 0.1608 0.8317 -0.5314
vn -0.0761 0.9892 -0.1250
vt 0.516906 0.737955
vt 0.516705 0.737899
vt 0.518167 0.738840
vt 0.518309 0.738946
vt 0.518438 0.739262
vt 0.518246 0.738860
vt 0.518382 0.738931
vt 0.517904 0.737882
vt 0.517167 0.737909
vt 0.518465 0.737576
vt 0.517360 0.738241
vt 0.518056 0.737576
vt 0.518219 0.739132
vt 0.517012 0.738316
vt 0.516787 0.738966
vt 0.518229 0.737699
vt 0.518410 0.737863
vt 0.517418 0.738522
vt 0.518522 0.738046
vt 0.517487 0.738696
vt 0.518114 0.738079
vt 0.517286 0.738109
vt 0.518477 0.738148
vt 0.517505 0.738796
vt 0.517413 0.737605
vt 0.518114 0.737608
vt 0.518287 0.739130
vt 0.517535 0.737659
vt 0.518287 0.738998
vt 0.517507 0.738153
vt 0.517620 0.738587
vt 0.518195 0.738326
vt 0.516634 0.738573
vt 0.517761 0.738020
vt 0.518410 0.738682
vt 0.517828 0.737974
vt 0.518347 0.738763
vt 0.517639 0.737576
vt 0.518382 0.738987
vt 0.518178 0.738931
vt 0.518438 0.738931
vt 0.516880 0.737592
vt 0.518114 0.739024
vt 0.518382 0.739148
vt 0.517314 0.737754
vt 0.518094 0.737735
vt 0.517187 0.737733
vt 0.518225 0.739295
vt 0.517978 0.737700
vt 0.517127 0.738402
vt 0.518130 0.739231
vt 0.517098 0.737677
vt 0.516856 0.738649
vt 0.516818 0.738323
vt 0.517409 0.739047
vt 0.518066 0.739022
vt 0.517609 0.739241
vt 0.518193 0.737576
vt 0.516949 0.739264
vt 0.518136 0.737667
vt 0.516915 0.739184
vt 0.517249 0.738068
vt 0.517828 0.738033
vt 0.518049 0.738263
vt 0.517249 0.738305
vt 0.517957 0.737995
vt 0.517905 0.738672
vt 0.517249 0.738716
vt 0.517595 0.737837
vt 0.518261 0.738359
vt 0.516676 0.738278
vt 0.518114 0.738552
vt 0.517012 0.737576
vt 0.518160 0.739150
vt 0.518391 0.739180
vt 0.517752 0.737738
vt 0.518281 0.738931
vt 0.517244 0.738525
vt 0.517885 0.738485
vt 0.517939 0.739016
vt 0.517126 0.739048
vt 0.517139 0.738049
vt 0.517501 0.739028
vt 0.517462 0.739169
vt 0.517091 0.739183
vt 0.518003 0.739151
vt 0.517761 0.739047
vt 0.518285 0.737813
vt 0.518265 0.737618
vt 0.517646 0.739208
vt 0.518339 0.738140
vt 0.517828 0.738701
vt 0.516777 0.739113
vt 0.518195 0.737799
vt 0.518016 0.738677
vt 0.517283 0.738721
vt 0.516808 0.737756
vt 0.518287 0.739071
vt 0.517048 0.739026
vt 0.517394 0.738326
vt 0.518522 0.737665
vt 0.517761 0.738424
vt 0.518410 0.738336
vt 0.516758 0.738873
vt 0.518132 0.738014
vt 0.517061 0.737845
vt 0.517023 0.738791
vt 0.517608 0.738543
vt 0.518522 0.737914
vt 0.517455 0.738568
vt 0.518507 0.737885
vt 0.517463 0.738536
vt 0.517439 0.738507
vt 0.518522 0.737852
vt 0.518126 0.738728
vt 0.516737 0.738019
vt 0.517835 0.739202
vt 0.518205 0.738763
vt 0.516701 0.737957
vt 0.518159 0.738796
vt 0.517828 0.739155
vt 0.516704 0.737978
vt 0.518160 0.738778
vt 0.517835 0.739151
vt 0.518155 0.738774
vt 0.516698 0.737986
vt 0.518294 0.739148
vt 0.516816 0.738830
vt 0.518287 0.739152
vt 0.516817 0.738835
vt 0.516812 0.738852
vt 0.518294 0.739239
vt 0.516900 0.738882
s 0
g off
g Stone_Material
usemtl Material
f 19/34/1 36/69/1 15/28/1
f 16/30/2 36/69/2 54/102/2
f 37/70/3 18/32/3 55/105/3
f 28/54/4 18/33/4 38/71/4
f 36/69/5 5/11/5 15/28/5
f 19/34/6 40/76/6 20/36/6
f 40/75/7 21/39/7 3/5/7
f 21/38/8 40/76/8 19/34/8
f 26/52/9 24/47/9 4/9/9
f 12/22/10 23/45/10 5/11/10
f 23/46/11 24/49/11 6/12/11
f 1/1/12 51/97/12 22/42/12
f 25/50/13 41/78/13 57/107/13
f 41/78/14 25/50/14 43/82/14
f 28/54/15 1/1/15 7/14/15
f 1/1/16 62/116/16 2/2/16
f 35/68/17 42/81/17 57/107/17
f 46/87/18 47/90/18 48/92/18
f 9/16/19 47/89/19 46/88/19
f 47/90/20 30/57/20 45/84/20
f 30/58/21 47/89/21 9/16/21
f 9/16/22 46/88/22 49/94/22
f 9/16/23 49/94/23 31/60/23
f 8/15/24 49/93/24 55/104/24
f 32/63/25 34/66/25 41/79/25
f 33/64/26 34/66/26 24/49/26
f 10/18/27 50/96/27 33/65/27
f 45/84/28 44/83/28 47/90/28
f 13/24/29 44/83/29 10/18/29
f 10/17/30 11/19/30 13/23/30
f 15/28/31 21/38/31 19/34/31
f 14/25/32 15/28/32 5/11/32
f 58/108/33 54/102/33 17/31/33
f 8/15/34 55/104/34 69/131/34
f 37/70/35 48/91/35 54/103/35
f 55/105/36 48/91/36 37/70/36
f 21/39/37 22/41/37 3/5/37
f 6/13/38 22/43/38 21/40/38
f 22/42/39 39/73/39 1/1/39
f 6/13/40 39/74/40 22/43/40
f 23/45/41 14/25/41 5/11/41
f 6/12/42 14/26/42 23/46/42
f 32/62/43 43/82/43 4/9/43
f 41/78/44 43/82/44 32/62/44
f 57/107/45 67/128/45 27/53/45
f 27/53/46 28/54/46 7/14/46
f 38/71/47 62/116/47 28/54/47
f 45/84/48 29/55/48 44/83/48
f 29/56/49 45/86/49 35/67/49
f 42/81/50 45/85/50 30/59/50
f 9/16/51 31/60/51 30/58/51
f 24/49/52 12/21/52 33/64/52
f 3/6/53 63/118/53 18/32/53
f 37/70/54 19/35/54 20/37/54
f 3/6/55 37/70/55 20/37/55
f 26/51/56 6/13/56 24/48/56
f 2/3/57 63/118/57 3/6/57
f 20/37/58 40/77/58 3/6/58
f 1/1/59 39/73/59 26/52/59
f 51/98/60 3/7/60 22/44/60
f 24/49/61 23/46/61 12/21/61
f 31/61/62 70/133/62 57/107/62
f 2/2/63 51/97/63 1/1/63
f 7/14/64 43/82/64 25/50/64
f 42/81/65 31/61/65 52/99/65
f 55/105/66 46/88/66 48/91/66
f 42/81/67 52/99/67 57/107/67
f 35/67/68 45/86/68 42/80/68
f 34/66/69 4/8/69 24/49/69
f 31/61/70 49/93/70 8/15/70
f 53/100/71 58/108/71 61/113/71
f 41/79/72 34/66/72 33/64/72
f 16/30/73 53/100/73 5/11/73
f 53/101/74 10/17/74 5/10/74
f 41/79/75 50/95/75 35/67/75
f 48/92/76 44/83/76 13/24/76
f 17/31/77 13/24/77 11/20/77
f 15/29/78 6/13/78 21/40/78
f 18/33/79 27/53/79 55/104/79
f 17/31/80 54/102/80 48/92/80
f 54/102/81 36/69/81 19/34/81
f 56/106/82 4/9/82 43/82/82
f 1/1/83 26/52/83 56/106/83
f 43/82/84 1/1/84 56/106/84
f 27/53/85 25/50/85 57/107/85
f 50/96/86 44/83/86 29/55/86
f 35/67/87 50/95/87 29/56/87
f 5/11/88 33/65/88 12/22/88
f 42/81/89 30/59/89 31/61/89
f 57/107/90 41/78/90 35/68/90
f 10/17/91 59/109/91 11/19/91
f 59/109/92 10/17/92 60/111/92
f 60/111/93 10/17/93 61/114/93
f 61/113/94 58/108/94 60/112/94
f 60/112/95 58/108/95 59/110/95
f 59/110/96 17/31/96 11/20/96
f 63/118/97 64/120/97 65/123/97
f 65/121/98 66/124/98 63/117/98
f 66/125/57 38/72/57 63/118/57
f 62/116/99 66/126/99 65/122/99
f 65/123/100 64/120/100 62/115/100
f 64/119/47 2/2/47 62/116/47
f 69/131/101 55/104/101 68/130/101
f 68/130/102 55/104/102 67/128/102
f 67/128/103 55/104/103 27/53/103
f 67/127/104 70/132/104 68/129/104
f 68/130/105 70/133/105 69/131/105
f 69/131/106 70/133/106 8/15/106
f 36/69/107 16/30/107 5/11/107
f 1/1/16 28/54/16 62/116/16
f 58/108/33 16/30/33 54/102/33
f 57/107/108 70/133/108 67/128/108
f 38/71/47 66/126/47 62/116/47
f 18/32/109 37/70/109 3/6/109
f 63/118/53 38/72/53 18/32/53
f 37/70/110 54/103/110 19/35/110
f 26/51/111 39/74/111 6/13/111
f 2/3/57 64/120/57 63/118/57
f 51/98/112 2/4/112 3/7/112
f 57/107/113 52/99/113 31/61/113
f 31/61/62 8/15/62 70/133/62
f 55/105/114 49/94/114 46/88/114
f 34/66/115 32/63/115 4/8/115
f 53/100/116 16/30/116 58/108/116
f 53/101/91 61/114/91 10/17/91
f 41/79/117 33/64/117 50/95/117
f 48/92/118 47/90/118 44/83/118
f 17/31/119 48/92/119 13/24/119
f 15/29/120 14/27/120 6/13/120
f 18/33/121 28/54/121 27/53/121
f 56/106/122 26/52/122 4/9/122
f 43/82/123 7/14/123 1/1/123
f 27/53/124 7/14/124 25/50/124
f 50/96/125 10/18/125 44/83/125
f 5/11/126 10/18/126 33/65/126
f 59/110/127 58/108/127 17/31/127
