# Blender 3.3.0
# www.blender.org
mtllib Rock007.mtl
g Stone_Mesh
v -0.876336 -0.200425 1.052172
v -0.916673 0.136755 -1.079076
v 0.037760 -0.308575 1.432973
v 0.851315 -0.255128 0.540990
v 0.513747 0.352318 -0.632326
v 0.028790 0.331552 -1.270519
v -0.335648 0.352579 -0.510427
v 0.653736 0.304410 0.751288
v 0.592843 0.340038 0.026621
v 0.255703 0.271001 1.716684
v 0.061276 -0.009439 1.836434
v -0.228173 0.021852 1.810929
v -0.808219 -0.112726 1.593529
v -0.914086 -0.017484 0.927833
v -1.039358 -0.131366 0.595033
v -0.052678 -0.323509 -0.911930
v -0.503143 -0.366890 -0.379566
v 0.668831 -0.368016 0.427149
v 0.005054 -0.331354 1.075321
v 0.565732 -0.311821 1.062000
v 0.778870 0.098320 -1.040732
v 1.248890 -0.043448 -0.175821
v 0.974685 0.222005 0.962533
v 1.109125 -0.019538 0.877941
v -0.749382 0.035736 -1.733561
v 0.088038 0.275515 -1.444814
v 0.889224 -0.037599 -1.341460
v 0.601453 -0.090606 -1.344899
v -0.891936 0.025607 -1.599634
v -0.443805 0.305519 -0.821645
v -0.106142 0.361731 -0.941263
v -1.097640 0.267588 -0.342742
v -0.530503 0.323898 -0.128347
v -0.455994 0.326676 1.039520
v -0.564716 0.299900 1.449539
v 0.000897 0.330957 0.758358
v 0.503539 -0.100979 1.334448
v 0.720109 -0.224098 1.097486
v 0.215057 -0.261141 1.476092
v -0.020436 -0.172063 1.795396
v -0.013041 0.192746 1.897439
v -0.143205 0.291396 1.661295
v -0.199878 -0.150735 1.818960
v -0.467002 -0.106727 1.788578
v -0.402079 -0.251736 1.230682
v -0.666502 0.264879 1.557511
v 0.867366 0.105085 1.312418
v -0.838694 -0.160235 1.399613
v -1.123623 -0.056009 0.416963
v -0.872899 -0.219128 0.528484
v -1.126636 0.216666 0.395220
v -0.947375 0.258522 0.715768
v -1.117692 0.076510 0.255358
v -1.011434 -0.144166 -0.098745
v -1.026670 -0.198959 -0.437407
v -0.981659 -0.239456 -0.612397
v -1.135796 0.159790 -0.505921
v -0.964234 0.253091 -0.714211
v -1.008118 0.019172 -1.279348
v 0.272516 -0.315069 -0.825993
v 0.578255 -0.307485 -0.815048
v -0.710677 -0.365169 -0.308452
v 0.088479 -0.317910 -0.110615
v -0.404173 -0.286740 0.874496
v -0.278919 -0.285246 -1.407444
v -0.512682 -0.284101 0.518485
v 1.093716 -0.112516 -0.898486
v 1.132784 0.023977 -0.493976
v 1.068882 0.240104 -0.514728
v 1.196565 0.266453 -0.246733
v 1.243804 0.162605 0.099300
v 1.207976 -0.098660 -0.209491
v 0.984079 0.290612 0.269359
v 0.987207 -0.156072 0.918000
v 0.997140 -0.107448 1.147227
v 0.846265 -0.178106 -0.958857
v -0.908965 -0.133068 -1.022375
v -0.366790 -0.222667 -1.723727
v 0.057593 0.230326 -1.674375
v -0.007548 -0.102069 -2.018151
v -0.081432 -0.271070 -1.630415
v 0.327070 -0.098558 -1.800784
v 0.279321 0.022155 -1.999670
v 0.894535 0.054276 -0.941977
v 0.681624 0.326332 -0.511279
v 0.265578 0.389607 -0.240307
v 0.818871 0.256694 1.033924
v 0.329224 0.204039 1.831456
v 0.334179 0.040325 1.711869
v -0.773203 0.078997 1.561515
v 0.832144 0.056454 1.339005
v -0.988204 0.189814 1.188133
v -1.074704 0.085706 -0.662964
v -0.790902 -0.303221 -0.758903
v 0.559305 -0.340207 -0.292315
v -0.204822 -0.310967 0.630914
v 0.695890 -0.340520 0.723099
v -0.921796 -0.320828 -0.355407
v 1.026170 -0.141522 0.506116
v 0.948145 -0.172240 -0.674081
v 0.050654 0.063157 -2.074506
v 0.096510 -0.203291 -1.814795
v 0.154592 0.134174 -1.994405
v 0.364731 -0.249986 -1.268141
v 0.542943 0.067057 -1.673148
v -0.356368 0.093543 -1.742506
vn -0.1916 0.9781 -0.0813
vn 0.1494 0.9888 0.0005
vn 0.1279 0.9918 -0.0042
vn -0.0104 0.9999 -0.0017
vn 0.2591 0.9608 0.0986
vn 0.2769 -0.5997 0.7508
vn 0.4858 0.8004 0.3511
vn 0.3765 -0.7994 0.4682
vn 0.6816 -0.0972 0.7252
vn 0.5292 -0.6888 0.4954
vn 0.4309 -0.5237 0.7348
vn 0.5935 -0.5470 0.5903
vn 0.1861 -0.9438 0.2731
vn 0.4391 -0.4209 0.7938
vn 0.1917 -0.2183 0.9569
vn -0.1179 -0.3263 0.9379
vn -0.2329 -0.9420 0.2418
vn -0.4861 0.2296 0.8432
vn -0.1101 -0.9650 0.2380
vn -0.7588 -0.5973 0.2596
vn -0.7985 0.5289 0.2876
vn -0.3159 0.9473 0.0530
vn -0.8489 0.4236 0.3162
vn -0.6520 -0.7581 -0.0123
vn -0.9988 -0.0125 -0.0469
vn -0.9365 0.3505 -0.0126
vn -0.7683 -0.6393 0.0324
vn -0.8145 -0.5785 -0.0439
vn -0.4328 -0.8836 -0.1790
vn -0.9705 -0.2274 -0.0803
vn -0.6187 -0.7571 -0.2098
vn -0.9646 -0.1570 -0.2118
vn -0.5014 -0.8117 -0.2995
vn -0.6397 0.7538 -0.1505
vn -0.2303 -0.9652 0.1238
vn 0.0456 -0.9962 -0.0745
vn -0.1827 -0.9779 -0.1019
vn -0.0542 -0.9984 -0.0179
vn -0.0807 -0.9964 -0.0262
vn -0.0516 -0.9986 -0.0110
vn -0.1119 -0.9937 0.0073
vn -0.0947 -0.9953 0.0215
vn 0.0064 -0.9980 0.0630
vn 0.0628 -0.9932 0.0981
vn 0.4370 -0.8665 0.2412
vn -0.1628 -0.9836 0.0775
vn -0.1722 -0.9755 0.1369
vn 0.4876 0.8494 -0.2018
vn 0.7821 0.5636 -0.2657
vn 0.2732 -0.9588 -0.0780
vn 0.8747 0.4273 -0.2287
vn 0.4981 0.8418 -0.2080
vn 0.9791 -0.1539 0.1333
vn 0.3422 0.9346 0.0971
vn 0.6289 0.7641 0.1435
vn 0.3347 -0.9057 0.2600
vn 0.3116 -0.9027 -0.2965
vn -0.1462 0.9527 -0.2664
vn -0.2426 0.9064 -0.3458
vn -0.2734 0.8679 -0.4147
vn 0.3495 0.4283 -0.8333
vn 0.2242 -0.3844 -0.8955
vn 0.3600 -0.7486 -0.5568
vn 0.3138 0.9314 -0.1847
vn 0.3740 -0.7503 -0.5452
vn 0.5086 -0.6765 -0.5327
vn 0.5130 0.8264 -0.2322
vn -0.2089 0.9485 -0.2382
vn 0.3420 0.9223 -0.1803
vn 0.2489 0.9435 -0.2187
vn -0.1215 0.9868 -0.1070
vn -0.0573 0.9983 -0.0093
vn 0.0846 0.9931 0.0807
vn -0.0746 0.9965 0.0368
vn -0.1417 0.9899 0.0067
vn 0.0411 0.9981 0.0456
vn 0.0440 0.9977 0.0507
vn 0.0411 0.9978 0.0515
vn -0.1077 0.9939 0.0238
vn 0.5708 -0.3883 0.7235
vn 0.0622 0.8789 0.4730
vn -0.0664 -0.9372 0.3424
vn -0.0069 0.9213 0.3887
vn -0.0887 -0.0084 0.9960
vn -0.1020 0.0659 0.9926
vn -0.4226 0.2613 0.8678
vn -0.1549 -0.9793 0.1301
vn -0.3403 0.9343 0.1065
vn -0.7230 -0.6729 0.1562
vn -0.8641 -0.4925 -0.1038
vn -0.8587 0.5106 -0.0440
vn -0.9968 -0.0787 0.0151
vn 0.3378 0.9254 -0.1718
vn -0.0396 -0.9975 -0.0589
vn -0.0101 -0.9973 -0.0724
vn 0.0295 -0.9898 -0.1395
vn 0.0253 -0.9997 0.0025
vn -0.0533 -0.9906 -0.1258
vn 0.3801 -0.9175 -0.1171
vn 0.0862 -0.9962 -0.0082
vn -0.0939 0.9696 0.2259
vn 0.5108 -0.8591 0.0331
vn 0.0172 -0.9957 0.0909
vn -0.1673 -0.9853 0.0341
vn -0.1550 -0.9831 0.0975
vn 0.1874 -0.9667 -0.1745
vn 0.1402 -0.9834 -0.1155
vn 0.2001 0.9127 -0.3563
vn 0.8730 0.2161 -0.4372
vn 0.3313 -0.9428 -0.0360
vn 0.8325 -0.5393 -0.1272
vn 0.2592 -0.9658 0.0080
vn 0.7630 -0.6359 0.1156
vn 0.8809 0.4039 0.2468
vn 0.7703 -0.6270 0.1157
vn 0.5478 -0.8363 0.0223
vn 0.5158 -0.8558 0.0389
vn 0.6990 -0.1210 0.7048
vn -0.4603 -0.7022 -0.5431
vn -0.3821 -0.5927 -0.7090
vn -0.0233 -0.9148 -0.4032
vn -0.2687 0.9328 -0.2402
vn 0.1814 -0.9791 -0.0921
vn 0.4578 0.8651 -0.2050
vn 0.3672 0.8778 -0.3076
vn -0.2230 0.9582 -0.1792
vn 0.3611 0.8788 -0.3121
vn 0.1529 0.9882 0.0001
vn 0.1151 0.9934 0.0009
vn 0.1005 0.9941 0.0404
vn -0.1528 0.9880 0.0240
vn 0.1329 0.9871 0.0890
vn 0.1532 0.9852 0.0768
vn 0.3657 0.8867 0.2831
vn 0.5331 -0.4885 0.6908
vn 0.1551 -0.9160 0.3699
vn -0.4106 0.0562 0.9101
vn -0.3275 0.4654 0.8223
vn -0.3912 0.9150 0.0993
vn -0.4572 -0.8889 0.0287
vn -0.7449 -0.6662 -0.0374
vn -0.7084 0.6405 -0.2966
vn -0.9911 -0.1169 0.0635
vn -0.4225 -0.8975 0.1266
vn 0.3034 -0.9169 -0.2594
vn -0.0517 -0.9906 -0.1270
vn 0.0269 -0.9977 -0.0615
vn -0.1326 -0.9829 0.1281
vn 0.5329 -0.8460 -0.0152
vn -0.0595 -0.9981 -0.0177
vn -0.1433 -0.9849 0.0976
vn 0.9417 0.0845 -0.3258
vn 0.9852 0.1456 -0.0908
vn 0.5428 -0.8397 -0.0140
vn 0.8587 0.3453 0.3788
vn 0.4451 -0.8797 0.1673
vn 0.1752 -0.9304 -0.3220
vn -0.3809 -0.1755 -0.9078
vn 0.5524 0.6401 -0.5340
vn 0.4139 -0.8798 -0.2337
vn 0.4643 -0.8337 -0.2990
vn 0.0474 0.9968 -0.0648
vn 0.4007 -0.8055 -0.4367
vn -0.2903 0.9231 -0.2521
vn -0.1599 0.9343 -0.3187
vn -0.9877 -0.0048 0.1564
vn -0.1289 0.9880 -0.0848
vn -0.1064 0.9941 0.0204
vn -0.0783 0.9962 0.0377
vn 0.0195 0.9987 0.0469
vn -0.0111 0.9980 0.0622
vn -0.2509 0.9650 0.0764
vn 0.2171 -0.7709 0.5989
vn 0.3742 -0.8277 0.4182
vn 0.0912 -0.2865 0.9537
vn -0.1329 0.8864 0.4435
vn -0.1834 -0.9564 0.2272
vn -0.1289 -0.9583 0.2550
vn 0.3583 -0.9325 -0.0454
vn -0.7231 0.4268 0.5431
vn -0.8493 -0.4908 0.1942
vn -0.9619 -0.2215 0.1604
vn -0.8333 -0.5230 0.1792
vn -0.6955 0.6635 -0.2757
vn -0.9342 -0.0145 -0.3566
vn -0.5911 -0.7731 -0.2300
vn -0.4180 -0.8370 -0.3532
vn 0.0097 -0.9986 0.0524
vn 0.8716 -0.4858 0.0653
vn -0.1761 -0.9833 0.0464
vn 0.8350 0.1976 -0.5136
vn 0.2115 0.9577 -0.1949
vn -0.2943 -0.9498 -0.1062
vn 0.8793 0.2016 0.4315
vn 0.3681 0.8420 0.3943
vn -0.5839 0.7878 -0.1960
vn -0.2672 0.9397 -0.2133
vn -0.4613 -0.8519 -0.2478
vn -0.1471 0.9712 -0.1875
vn -0.0800 -0.9081 -0.4111
vn 0.3113 0.9237 -0.2231
vn 0.6991 0.3652 -0.6147
vn 0.0504 0.9962 -0.0707
vn -0.9614 0.2060 0.1824
vn 0.3231 -0.9425 -0.0856
vn 0.0664 -0.9972 0.0356
vn 0.4750 -0.8773 0.0681
vn -0.1131 -0.9802 -0.1625
vt 0.545030 0.733120
vt 0.543176 0.732410
vt 0.544600 0.733248
vt 0.543656 0.732428
vt 0.543731 0.731983
vt 0.542612 0.733429
vt 0.545279 0.732216
vt 0.544184 0.732985
vt 0.545279 0.731931
vt 0.543526 0.732699
vt 0.544432 0.733111
vt 0.543573 0.732429
vt 0.544293 0.733347
vt 0.543777 0.733084
vt 0.543990 0.733027
vt 0.543577 0.733356
vt 0.544477 0.732376
vt 0.544076 0.732474
vt 0.544130 0.732580
vt 0.544950 0.732931
vt 0.543054 0.731719
vt 0.544440 0.733972
vt 0.543121 0.731879
vt 0.542928 0.731917
vt 0.545169 0.733125
vt 0.543121 0.733265
vt 0.543099 0.733009
vt 0.543577 0.732038
vt 0.544477 0.733576
vt 0.542624 0.733319
vt 0.544656 0.733339
vt 0.542674 0.733012
vt 0.544444 0.733381
vt 0.543645 0.732171
vt 0.544877 0.732184
vt 0.544042 0.731719
vt 0.544675 0.732500
vt 0.543649 0.732976
vt 0.544404 0.731989
vt 0.544054 0.731931
vt 0.543007 0.732597
vt 0.545185 0.731906
vt 0.543121 0.733812
vt 0.544661 0.732140
vt 0.543168 0.733681
vt 0.544599 0.733693
vt 0.542988 0.732530
vt 0.543474 0.732476
vt 0.543577 0.732591
vt 0.544373 0.733204
vt 0.544358 0.733676
vt 0.543389 0.732204
vt 0.544217 0.733469
vt 0.543891 0.733571
vt 0.543793 0.733662
vt 0.543891 0.733352
vt 0.543944 0.732232
vt 0.543766 0.732116
vt 0.543718 0.732366
vt 0.544603 0.733033
vt 0.543846 0.732502
vt 0.544367 0.732507
vt 0.543663 0.733513
vt 0.544519 0.732519
vt 0.543881 0.732574
vt 0.544675 0.732988
vt 0.543953 0.732670
vt 0.544792 0.732922
vt 0.544811 0.733186
vt 0.543577 0.731819
vt 0.543773 0.733715
vt 0.544499 0.732703
vt 0.544512 0.733576
vt 0.544230 0.732085
vt 0.542972 0.731754
vt 0.544978 0.733014
vt 0.543007 0.731956
vt 0.545242 0.733077
vt 0.545095 0.733244
vt 0.543374 0.732003
vt 0.543474 0.731968
vt 0.544046 0.733735
vt 0.543175 0.732018
vt 0.544599 0.734077
vt 0.542861 0.732097
vt 0.542759 0.732171
vt 0.542696 0.732219
vt 0.543227 0.732220
vt 0.544432 0.733580
vt 0.543356 0.732325
vt 0.542991 0.732422
vt 0.543024 0.733375
vt 0.542947 0.733487
vt 0.545113 0.733576
vt 0.543138 0.732925
vt 0.542915 0.733210
vt 0.544852 0.733292
vt 0.542648 0.732569
vt 0.543306 0.733271
vt 0.544942 0.733349
vt 0.542934 0.733786
vt 0.544559 0.732290
vt 0.544762 0.732402
vt 0.545059 0.732398
vt 0.544491 0.731722
vt 0.543947 0.732749
vt 0.545093 0.732496
vt 0.544331 0.731758
vt 0.544969 0.732576
vt 0.544604 0.732475
vt 0.542764 0.733741
vt 0.543964 0.731731
vt 0.544519 0.731880
vt 0.543849 0.732894
vt 0.543861 0.731986
vt 0.543925 0.732016
vt 0.542977 0.733671
vt 0.544756 0.733576
vt 0.543463 0.733073
vt 0.542816 0.732355
vt 0.542699 0.732639
vt 0.543429 0.733316
vt 0.543361 0.732792
vt 0.545115 0.731843
vt 0.544657 0.731719
vt 0.542878 0.732812
vt 0.543463 0.733548
vt 0.543311 0.733380
vt 0.544629 0.731867
vt 0.543333 0.733640
vt 0.544785 0.731820
vt 0.544808 0.732236
vt 0.544117 0.732930
vt 0.545228 0.732290
vt 0.544128 0.733132
vt 0.543663 0.733048
vt 0.544456 0.732059
vt 0.544375 0.732367
vt 0.544143 0.732350
vt 0.544981 0.732749
vt 0.544234 0.732749
vt 0.544432 0.733731
vt 0.543315 0.731765
vt 0.544160 0.732104
vt 0.543413 0.731829
vt 0.544599 0.733752
vt 0.543121 0.732262
vt 0.543288 0.732990
vt 0.542619 0.732288
vt 0.542822 0.733392
vt 0.544802 0.733386
vt 0.542834 0.733008
vt 0.544432 0.733492
vt 0.543609 0.732071
vt 0.543225 0.732879
vt 0.542612 0.732154
vt 0.545211 0.733518
vt 0.542634 0.733556
vt 0.543890 0.731909
vt 0.542892 0.733672
vt 0.544867 0.731739
vt 0.543104 0.732865
vt 0.544519 0.731785
vt 0.544649 0.733974
vt 0.543340 0.733504
vt 0.543217 0.732879
vt 0.544953 0.731794
vt 0.543129 0.733502
vt 0.544756 0.733799
vt 0.544829 0.731974
vt 0.543126 0.732696
s 0
g off
g Stone_Material
usemtl Material
f 7/12/1 31/49/1 30/48/1
f 9/15/2 5/8/2 86/135/2
f 9/15/3 73/114/3 85/133/3
f 33/53/4 34/54/4 36/56/4
f 23/38/5 73/114/5 87/136/5
f 75/116/6 91/144/6 37/57/6
f 47/74/7 87/137/7 88/138/7
f 89/139/8 37/57/8 91/144/8
f 88/138/9 91/144/9 47/74/9
f 37/57/10 89/139/10 40/61/10
f 89/139/11 88/138/11 11/18/11
f 39/59/12 37/57/12 40/61/12
f 39/59/13 3/4/13 20/34/13
f 89/139/14 11/18/14 40/61/14
f 41/62/15 11/18/15 88/138/15
f 11/18/16 41/62/16 12/19/16
f 3/3/17 43/66/17 45/69/17
f 13/20/18 44/68/18 90/140/18
f 48/76/19 45/69/19 44/68/19
f 92/146/20 14/22/20 90/142/20
f 14/23/21 49/77/21 48/75/21
f 51/80/22 52/81/22 32/52/22
f 14/23/23 53/83/23 49/77/23
f 54/85/24 15/24/24 49/77/24
f 93/147/25 49/77/25 53/83/25
f 32/52/26 57/88/26 51/80/26
f 15/24/27 55/86/27 98/156/27
f 57/88/28 93/147/28 53/83/28
f 98/156/29 56/87/29 94/149/29
f 55/86/30 93/147/30 59/91/30
f 77/120/31 55/86/31 59/91/31
f 55/86/32 77/120/32 56/87/32
f 56/87/33 77/120/33 94/149/33
f 93/147/34 2/2/34 59/91/34
f 50/79/35 98/157/35 62/94/35
f 60/92/36 16/26/36 81/128/36
f 94/148/37 62/95/37 98/155/37
f 60/92/38 95/150/38 63/96/38
f 19/32/39 95/150/39 18/30/39
f 63/96/40 95/150/40 96/152/40
f 64/97/41 96/151/41 19/31/41
f 66/100/42 96/151/42 64/97/42
f 18/29/43 3/3/43 19/31/43
f 20/33/44 3/3/44 18/29/44
f 20/34/45 97/154/45 38/58/45
f 45/69/46 19/31/46 3/3/46
f 66/100/47 50/79/47 62/94/47
f 68/103/48 27/44/48 84/132/48
f 67/102/49 27/44/49 68/103/49
f 76/117/50 67/101/50 100/160/50
f 22/37/51 67/102/51 68/103/51
f 68/103/52 84/132/52 21/35/52
f 24/40/53 22/36/53 71/108/53
f 70/105/54 73/113/54 23/39/54
f 23/39/55 71/108/55 70/105/55
f 38/58/56 97/154/56 75/116/56
f 67/101/57 76/117/57 27/43/57
f 25/41/58 106/171/58 101/162/58
f 103/166/59 106/171/59 79/123/59
f 101/162/60 106/171/60 103/166/60
f 83/131/61 101/161/61 103/167/61
f 101/161/62 83/131/62 80/125/62
f 80/125/63 83/131/63 102/163/63
f 103/167/64 79/124/64 105/170/64
f 83/131/65 82/129/65 102/163/65
f 82/129/66 83/131/66 27/44/66
f 84/132/67 105/170/67 21/35/67
f 30/48/68 106/171/68 2/2/68
f 21/35/69 26/42/69 6/9/69
f 26/42/70 79/124/70 6/9/70
f 30/48/71 58/90/71 7/12/71
f 7/13/72 86/135/72 31/50/72
f 9/15/73 86/135/73 36/56/73
f 7/13/74 33/53/74 36/56/74
f 34/54/75 33/53/75 52/82/75
f 36/56/76 8/14/76 9/15/76
f 36/56/77 42/63/77 10/16/77
f 8/14/78 36/56/78 10/16/78
f 33/53/79 32/51/79 52/82/79
f 39/59/80 38/58/80 37/57/80
f 10/17/81 41/62/81 88/138/81
f 40/60/82 43/66/82 3/3/82
f 42/64/83 41/62/83 10/17/83
f 44/67/84 11/18/84 12/19/84
f 43/65/85 11/18/85 44/67/85
f 46/72/86 90/141/86 41/62/86
f 45/69/87 48/76/87 1/1/87
f 92/145/88 46/70/88 52/81/88
f 1/1/89 48/76/89 15/25/89
f 49/77/90 93/147/90 54/85/90
f 54/85/91 55/86/91 15/24/91
f 57/88/92 53/83/92 51/80/92
f 105/170/93 26/42/93 21/35/93
f 65/99/94 16/26/94 94/148/94
f 81/128/95 16/26/95 65/99/95
f 60/92/96 104/168/96 61/93/96
f 16/26/97 60/92/97 63/96/97
f 16/26/98 17/27/98 94/148/98
f 61/93/99 76/117/99 100/160/99
f 16/26/100 63/96/100 17/27/100
f 46/71/101 42/63/101 35/55/101
f 4/5/102 97/154/102 18/28/102
f 18/29/103 97/153/103 20/33/103
f 50/79/104 64/97/104 1/1/104
f 19/31/105 45/69/105 64/97/105
f 104/168/106 81/128/106 102/165/106
f 81/128/107 104/168/107 60/92/107
f 69/104/108 21/35/108 85/134/108
f 68/103/109 69/104/109 70/107/109
f 67/101/110 72/111/110 100/160/110
f 22/37/111 72/110/111 67/102/111
f 72/111/112 99/158/112 100/160/112
f 24/40/113 72/112/113 22/36/113
f 24/40/114 71/108/114 23/39/114
f 24/40/115 75/116/115 72/112/115
f 99/159/116 74/115/116 4/5/116
f 4/5/117 74/115/117 97/154/117
f 91/144/118 75/116/118 47/74/118
f 25/41/119 78/121/119 29/47/119
f 78/121/120 25/41/120 80/126/120
f 81/128/121 78/122/121 80/127/121
f 30/48/122 79/123/122 106/171/122
f 27/43/123 28/45/123 82/130/123
f 105/170/124 84/132/124 27/44/124
f 21/35/125 6/9/125 5/7/125
f 30/48/126 31/49/126 6/10/126
f 5/7/127 85/134/127 21/35/127
f 9/15/128 85/133/128 5/8/128
f 73/114/129 70/106/129 85/133/129
f 9/15/130 8/14/130 73/114/130
f 52/82/131 35/55/131 34/54/131
f 87/136/132 8/14/132 10/16/132
f 8/14/133 87/136/133 73/114/133
f 88/138/134 87/137/134 10/17/134
f 89/139/135 91/144/135 88/138/135
f 3/4/136 39/59/136 40/61/136
f 12/19/137 41/62/137 90/141/137
f 90/141/138 44/67/138 12/19/138
f 51/80/139 92/145/139 52/81/139
f 15/25/140 50/79/140 1/1/140
f 98/156/141 55/86/141 56/87/141
f 57/88/142 58/90/142 2/2/142
f 54/85/143 93/147/143 55/86/143
f 15/25/144 98/157/144 50/79/144
f 104/168/145 76/117/145 61/93/145
f 17/27/146 62/95/146 94/148/146
f 61/93/147 95/150/147 60/92/147
f 62/94/148 96/151/148 66/100/148
f 18/30/149 100/160/149 4/6/149
f 96/152/150 95/150/150 19/32/150
f 45/69/151 1/1/151 64/97/151
f 70/107/152 22/37/152 68/103/152
f 22/37/153 70/107/153 71/109/153
f 4/6/154 100/160/154 99/158/154
f 24/40/155 23/39/155 47/74/155
f 75/116/156 97/154/156 74/115/156
f 28/45/157 27/43/157 76/117/157
f 25/41/158 101/162/158 80/126/158
f 105/170/159 83/131/159 103/167/159
f 82/130/160 28/45/160 102/165/160
f 104/169/161 102/164/161 28/46/161
f 5/8/162 31/50/162 86/135/162
f 104/169/163 28/46/163 76/118/163
f 30/48/164 6/10/164 79/123/164
f 2/2/165 58/90/165 30/48/165
f 13/21/166 14/23/166 48/75/166
f 7/13/167 58/89/167 32/51/167
f 33/53/168 7/13/168 32/51/168
f 7/13/169 36/56/169 86/135/169
f 36/56/170 34/54/170 42/63/170
f 34/54/171 35/55/171 42/63/171
f 52/82/172 46/71/172 35/55/172
f 37/57/173 38/58/173 75/116/173
f 38/58/174 39/59/174 20/34/174
f 43/65/175 40/61/175 11/18/175
f 46/72/176 41/62/176 42/64/176
f 43/66/177 44/68/177 45/69/177
f 13/20/178 48/76/178 44/68/178
f 100/160/179 95/150/179 61/93/179
f 46/73/180 92/146/180 90/142/180
f 15/25/181 48/76/181 49/78/181
f 51/80/182 53/83/182 92/145/182
f 53/84/183 14/22/183 92/146/183
f 57/88/184 32/52/184 58/90/184
f 93/147/185 57/88/185 2/2/185
f 29/47/186 77/120/186 59/91/186
f 94/149/187 77/120/187 65/98/187
f 17/27/188 96/152/188 62/95/188
f 99/159/189 75/116/189 74/115/189
f 66/100/190 64/97/190 50/79/190
f 21/35/191 69/104/191 68/103/191
f 85/134/192 70/107/192 69/104/192
f 78/122/193 65/99/193 77/119/193
f 47/74/194 75/116/194 24/40/194
f 47/74/195 23/39/195 87/137/195
f 59/91/196 2/2/196 29/47/196
f 25/41/197 29/47/197 2/2/197
f 29/47/198 78/121/198 77/120/198
f 2/2/199 106/171/199 25/41/199
f 81/128/200 80/127/200 102/165/200
f 105/170/201 79/124/201 26/42/201
f 105/170/202 27/44/202 83/131/202
f 5/8/203 6/11/203 31/50/203
f 13/21/204 90/143/204 14/23/204
f 100/160/205 18/30/205 95/150/205
f 17/27/206 63/96/206 96/152/206
f 99/159/207 72/112/207 75/116/207
f 78/122/208 81/128/208 65/99/208
