# Blender 3.3.0
# www.blender.org
mtllib Rock004.mtl
g rock.002_Mesh
v -1.017715 -0.121016 0.161133
v 1.216973 0.379677 0.174718
v -0.712276 0.286183 0.179456
v 0.008920 -0.324366 -0.466159
v 1.214003 -0.336063 -0.010150
v -0.322739 0.348808 0.390136
v 0.128799 0.661401 -0.229604
v 1.384154 -0.150150 0.357791
v 0.343598 0.617604 0.041719
v -0.846985 -0.350028 -0.090527
v -0.452663 -0.210732 0.692413
v -0.139179 0.118319 0.615865
v 1.178862 -0.471599 0.043471
v 1.083951 -0.533471 0.327518
v 1.081019 0.080587 0.488080
v 1.129857 0.024363 0.201650
v 1.322533 -0.129092 -0.042056
v -0.609929 0.017956 0.264204
v 0.529836 -0.291922 0.701523
v 1.084781 -0.293642 0.575081
v 0.490043 -0.030966 0.614089
v -0.470167 -0.530147 -0.089514
v -0.031722 -0.543500 0.160019
v 0.176012 -0.552495 -0.084826
v 0.339282 -0.607112 0.371318
v -0.004893 -0.476216 0.622141
v 0.751782 0.593227 -0.082510
v 0.535898 0.554598 -0.377140
v -0.211095 0.536219 -0.521892
v 0.823298 0.258902 -0.383921
v 0.600165 0.026543 -0.405114
v 1.189375 0.050391 -0.176660
v 1.222921 0.398422 -0.091391
v 0.954849 -0.236239 -0.418799
v -0.804973 0.293741 -0.102269
v -0.739580 0.060302 -0.330542
v -0.762857 0.283534 -0.359905
v 0.552254 0.336706 0.463848
v -0.418176 0.410652 -0.180506
v 1.218854 -0.093869 0.645433
v -0.617442 -0.337673 0.363852
v 0.861268 -0.425536 -0.279417
v 0.866685 -0.620206 0.029939
v -0.338661 -0.048971 -0.569153
v 0.108692 0.257986 -0.686790
v -1.064807 -0.183057 -0.081295
v 1.159513 0.253269 0.307158
v 1.147971 0.227876 0.333762
v 0.839806 0.355295 0.338773
v 1.118963 0.036905 0.265544
v 1.009483 0.265292 0.353393
v 1.002836 0.244598 0.374031
v 1.147354 0.166738 0.271679
v 1.154336 0.171817 0.244665
v 1.136407 0.163703 0.249319
v 1.139087 0.233951 0.311504
v 0.992481 0.250811 0.352208
v -0.482865 0.323065 0.303533
v -0.593659 0.305253 0.243610
v -0.492716 0.152990 0.315602
v -0.453648 0.350744 0.164801
v -0.534124 0.300569 0.256814
v -0.071049 -0.027446 -0.522394
v -0.198309 0.047333 -0.606060
v -0.170661 0.088969 -0.575524
v -0.106571 0.110281 -0.630184
v -0.245565 0.156487 -0.571451
vn -0.2988 0.1820 0.9368
vn -0.2089 0.9259 0.3148
vn -0.0525 0.6771 0.7340
vn 0.0889 0.3638 0.9272
vn -0.2321 0.9621 0.1431
vn -0.3847 -0.7796 0.4941
vn 0.0177 0.3201 0.9472
vn 0.0465 0.1841 0.9818
vn 0.0273 0.6813 0.7314
vn -0.0262 -0.8629 -0.5047
vn -0.0346 -0.9994 0.0073
vn -0.5688 -0.7626 0.3081
vn -0.2118 -0.9225 0.3228
vn 0.3908 -0.7759 -0.4951
vn 0.1082 -0.9729 0.2045
vn -0.2514 -0.9556 0.1537
vn -0.2794 -0.9477 0.1542
vn 0.0668 0.8867 -0.4575
vn 0.1797 0.8917 0.4154
vn 0.3492 0.8614 -0.3688
vn 0.3619 0.3714 -0.8550
vn 0.1353 0.6156 -0.7763
vn 0.6152 -0.4228 -0.6654
vn 0.9540 -0.2183 0.2055
vn 0.7801 0.6256 0.0102
vn 0.7763 -0.6178 0.1248
vn 0.3581 -0.2621 -0.8961
vn 0.5499 0.1484 -0.8220
vn -0.2936 -0.6371 -0.7126
vn 0.9645 -0.2262 0.1362
vn 0.7312 0.6630 0.1607
vn 0.5572 -0.6531 -0.5129
vn 0.0968 -0.6207 -0.7780
vn -0.5372 -0.1648 -0.8272
vn -0.7759 0.5698 0.2706
vn -0.8762 0.4796 0.0475
vn -0.9802 -0.1227 -0.1554
vn -0.3044 0.9485 -0.0873
vn -0.5710 -0.7618 0.3059
vn -0.6132 0.2466 0.7505
vn -0.2664 0.9572 0.1133
vn -0.3906 0.7447 0.5412
vn -0.5419 0.6423 0.5420
vn -0.4849 0.0898 0.8699
vn -0.0363 0.8236 0.5660
vn -0.3988 0.9022 0.1645
vn -0.5953 -0.6027 0.5314
vn -0.0344 -0.3095 0.9503
vn 0.6472 -0.5486 0.5293
vn 0.1686 -0.7598 0.6279
vn 0.1301 0.3561 0.9253
vn 0.2738 0.6336 0.7236
vn -0.0135 0.3158 0.9487
vn -0.1283 -0.9891 -0.0725
vn -0.0825 -0.9926 -0.0893
vn -0.4196 -0.8765 0.2358
vn -0.2975 -0.6263 -0.7206
vn 0.0055 -0.8463 -0.5327
vn 0.0117 -0.8558 -0.5171
vn 0.4311 -0.9008 -0.0522
vn 0.1125 -0.7504 0.6513
vn -0.4088 0.9086 0.0862
vn 0.0870 0.9920 0.0912
vn 0.1623 0.9560 -0.2443
vn -0.3898 0.9154 0.1003
vn 0.3823 0.9211 0.0734
vn 0.1584 0.8563 0.4915
vn 0.4283 0.4345 -0.7923
vn 0.8642 -0.4776 -0.1583
vn 0.9083 -0.3348 -0.2509
vn 0.5080 0.8522 0.1252
vn 0.5849 0.8097 -0.0475
vn 0.1544 -0.7099 0.6872
vn 0.1981 -0.4412 0.8753
vn 0.3056 0.4560 -0.8358
vn 0.9949 -0.0996 0.0152
vn 0.1855 -0.5755 -0.7965
vn 0.3750 -0.2795 -0.8839
vn 0.7148 0.0059 -0.6993
vn 0.6992 -0.4520 -0.5539
vn 0.0730 -0.2672 -0.9609
vn 0.1473 0.2486 -0.9573
vn -0.7233 0.3685 -0.5840
vn -0.5343 -0.1398 -0.8337
vn -0.3437 0.1454 -0.9278
vn -0.3429 0.1549 -0.9265
vn 0.6382 -0.5987 0.4839
vn -0.4167 -0.5017 -0.7581
vn 0.2868 -0.0887 0.9539
vn 0.9149 0.2831 -0.2879
vn 0.2093 0.0957 0.9732
vn 0.5665 0.8234 -0.0344
vn 0.8934 -0.1758 -0.4135
vn 0.1661 0.9662 0.1974
vn -0.0796 0.0118 0.9968
vn 0.6091 -0.5068 0.6101
vn -0.4604 0.8841 0.0794
vn -0.1811 0.3197 0.9301
vn -0.0315 0.8888 0.4572
vn -0.6923 0.0909 0.7158
vn -0.3722 -0.6297 -0.6819
vn 0.6079 0.1658 -0.7765
vn 0.3236 0.4104 -0.8526
vn -0.4720 -0.4790 -0.7402
vn 0.2171 -0.3301 0.9186
vn 0.8152 0.3662 -0.4488
vn 0.1657 0.9664 0.1965
vn 0.4448 -0.6031 0.6621
vt 0.560975 0.738967
vt 0.559866 0.737045
vt 0.561185 0.737005
vt 0.559642 0.738583
vt 0.560202 0.738951
vt 0.560975 0.738625
vt 0.559736 0.737265
vt 0.560866 0.737701
vt 0.560750 0.738553
vt 0.560622 0.738673
vt 0.559766 0.738780
vt 0.559831 0.737543
vt 0.559342 0.737828
vt 0.559390 0.738778
vt 0.560333 0.738575
vt 0.561103 0.738595
vt 0.559513 0.737986
vt 0.561398 0.737141
vt 0.560544 0.737159
vt 0.561280 0.738595
vt 0.560197 0.737455
vt 0.561072 0.737317
vt 0.561134 0.738854
vt 0.560035 0.737673
vt 0.561398 0.738482
vt 0.560665 0.738600
vt 0.560471 0.738512
vt 0.561353 0.738381
vt 0.560214 0.738739
vt 0.559931 0.738498
vt 0.559524 0.738595
vt 0.560368 0.738799
vt 0.560524 0.738749
vt 0.559870 0.737332
vt 0.560849 0.738700
vt 0.560197 0.738123
vt 0.561102 0.737973
vt 0.561132 0.738362
vt 0.561280 0.739253
vt 0.560062 0.738098
vt 0.559217 0.738809
vt 0.560521 0.737428
vt 0.559390 0.738595
vt 0.560428 0.737747
vt 0.560587 0.737866
vt 0.560330 0.738020
vt 0.561398 0.737872
vt 0.560197 0.737800
vt 0.561248 0.737616
vt 0.560301 0.739298
vt 0.559433 0.738258
vt 0.561742 0.738172
vt 0.559274 0.738095
vt 0.560495 0.739456
vt 0.559217 0.737578
vt 0.561770 0.737769
vt 0.560588 0.739222
vt 0.561474 0.738456
vt 0.560742 0.739190
vt 0.561578 0.738588
vt 0.560985 0.738810
vt 0.561620 0.738172
vt 0.560526 0.738927
vt 0.559475 0.738574
vt 0.560319 0.739054
vt 0.560813 0.738952
vt 0.560985 0.738335
vt 0.561134 0.738595
vt 0.559567 0.737188
vt 0.561770 0.737251
vt 0.561562 0.737310
vt 0.559413 0.737204
vt 0.561700 0.737348
vt 0.559851 0.738143
vt 0.559470 0.737451
vt 0.560077 0.738595
vt 0.559524 0.738909
vt 0.560985 0.738451
vt 0.560197 0.738553
vt 0.559390 0.739042
vt 0.561251 0.737241
vt 0.560321 0.737353
vt 0.560849 0.738841
vt 0.560825 0.738300
vt 0.560580 0.738347
vt 0.561134 0.739309
vt 0.560985 0.737435
vt 0.559710 0.738778
vt 0.561398 0.737594
vt 0.560849 0.739563
vt 0.561398 0.738966
vt 0.561523 0.737952
vt 0.559741 0.737000
vt 0.561297 0.737000
vt 0.561496 0.737000
vt 0.560575 0.737000
vt 0.559524 0.738786
vt 0.559764 0.738547
vt 0.560207 0.738862
vt 0.560208 0.738844
vt 0.559789 0.738540
vt 0.559643 0.738595
vt 0.559761 0.738333
vt 0.559643 0.738877
vt 0.560334 0.738785
vt 0.559793 0.738447
vt 0.559592 0.738703
vt 0.559812 0.738443
vt 0.560266 0.738837
vt 0.560275 0.738846
vt 0.559569 0.738839
vt 0.560280 0.738847
vt 0.559581 0.738833
vt 0.560217 0.738857
vt 0.559773 0.738533
vt 0.559543 0.738785
vt 0.559608 0.738702
vt 0.559797 0.738435
vt 0.559716 0.738684
vt 0.559792 0.737428
vt 0.559765 0.737349
vt 0.560940 0.738553
vt 0.559766 0.738595
vt 0.559854 0.737418
vt 0.560854 0.738573
vt 0.559699 0.737442
vt 0.559773 0.737391
vt 0.559710 0.738644
vt 0.559813 0.738762
vt 0.559710 0.738595
vt 0.561620 0.739045
vt 0.561091 0.739167
vt 0.559643 0.738690
vt 0.559766 0.738662
vt 0.561438 0.737706
vt 0.559804 0.738654
vt 0.561560 0.739127
vt 0.561513 0.739091
vt 0.561463 0.737780
vt 0.559813 0.738595
vt 0.561547 0.739183
vt 0.561520 0.737690
s 0
g off
f 1/1/1 18/35/1 3/6/1
f 9/17/2 7/13/2 6/12/2
f 38/74/3 6/12/3 12/24/3
f 38/74/4 12/24/4 21/40/4
f 39/75/5 61/126/5 6/12/5
f 26/49/6 11/22/6 41/81/6
f 19/36/7 21/40/7 11/21/7
f 11/20/8 21/39/8 12/23/8
f 21/40/9 40/76/9 15/30/9
f 4/8/10 24/45/10 22/42/10
f 22/42/11 24/45/11 23/44/11
f 1/3/12 10/18/12 41/81/12
f 41/80/13 22/41/13 23/43/13
f 42/84/14 13/26/14 43/85/14
f 25/46/15 43/85/15 14/27/15
f 26/48/16 23/44/16 25/46/16
f 41/82/17 23/44/17 26/48/17
f 29/55/18 7/13/18 28/53/18
f 27/51/19 9/17/19 2/4/19
f 28/54/20 27/50/20 33/65/20
f 45/90/21 28/54/21 30/57/21
f 45/92/22 29/56/22 28/52/22
f 5/10/23 13/26/23 42/83/23
f 15/29/24 53/109/24 48/100/24
f 40/79/25 50/105/25 15/29/25
f 14/28/26 13/25/26 8/16/26
f 30/58/27 32/62/27 31/60/27
f 33/65/28 32/63/28 30/57/28
f 44/87/29 4/8/29 10/19/29
f 2/5/30 16/32/30 32/63/30
f 16/32/31 17/33/31 32/63/31
f 34/67/32 5/9/32 42/84/32
f 34/67/33 42/84/33 4/8/33
f 37/73/34 44/89/34 36/71/34
f 3/7/35 35/69/35 1/2/35
f 35/69/36 46/93/36 1/2/36
f 35/70/37 37/73/37 36/71/37
f 39/75/38 37/72/38 35/69/38
f 46/94/39 10/18/39 1/3/39
f 12/24/40 60/124/40 18/34/40
f 39/75/41 35/69/41 3/7/41
f 1/2/42 11/21/42 18/34/42
f 11/21/43 12/24/43 18/34/43
f 18/35/44 59/122/44 3/6/44
f 38/74/45 9/17/45 6/12/45
f 7/13/46 39/75/46 6/12/46
f 41/81/47 11/22/47 1/3/47
f 26/49/48 19/37/48 11/22/48
f 20/38/49 14/28/49 8/16/49
f 25/47/50 19/37/50 26/49/50
f 38/74/51 21/40/51 15/30/51
f 15/30/52 52/108/52 49/103/52
f 21/40/53 19/36/53 40/76/53
f 23/44/54 24/45/54 25/46/54
f 25/46/55 24/45/55 43/85/55
f 41/82/56 10/19/56 22/42/56
f 10/19/57 4/8/57 22/42/57
f 43/85/58 24/45/58 42/84/58
f 24/45/59 4/8/59 42/84/59
f 14/27/60 43/85/60 13/26/60
f 19/37/61 25/47/61 14/28/61
f 39/75/62 7/13/62 29/55/62
f 9/17/63 27/51/63 7/13/63
f 28/53/64 7/13/64 27/51/64
f 39/75/65 29/55/65 37/72/65
f 2/4/66 33/64/66 27/51/66
f 9/17/67 49/103/67 2/4/67
f 30/57/68 28/54/68 33/65/68
f 5/10/69 17/33/69 8/15/69
f 8/15/70 13/26/70 5/10/70
f 40/77/71 8/14/71 16/31/71
f 16/32/72 8/15/72 17/33/72
f 19/37/73 14/28/73 20/38/73
f 19/37/74 20/38/74 40/78/74
f 31/59/75 32/63/75 34/66/75
f 33/65/76 2/5/76 32/63/76
f 45/91/77 63/131/77 66/138/77
f 45/91/78 30/58/78 31/60/78
f 34/66/79 32/63/79 17/33/79
f 34/66/80 17/33/80 5/10/80
f 44/87/81 34/67/81 4/8/81
f 63/132/82 34/68/82 44/86/82
f 35/70/83 36/71/83 46/95/83
f 36/71/84 44/89/84 46/95/84
f 37/73/85 67/142/85 44/89/85
f 37/73/86 29/56/86 45/92/86
f 40/78/87 20/38/87 8/16/87
f 46/96/88 44/87/88 10/19/88
f 51/106/52 2/4/52 49/103/52
f 51/107/89 56/116/89 47/97/89
f 53/109/90 56/114/90 48/100/90
f 54/110/24 16/32/24 2/5/24
f 54/111/91 55/113/91 50/104/91
f 52/108/92 57/118/92 49/103/92
f 50/105/93 55/112/93 53/109/93
f 56/115/94 52/108/94 48/101/94
f 49/102/95 57/117/95 51/107/95
f 56/116/96 54/111/96 47/97/96
f 58/120/97 61/126/97 62/127/97
f 59/121/98 60/124/98 62/127/98
f 58/119/44 60/123/44 6/11/44
f 62/127/99 61/126/99 59/121/99
f 62/128/100 60/123/100 58/119/100
f 66/138/101 63/131/101 65/137/101
f 65/136/102 63/129/102 64/134/102
f 64/133/77 63/130/77 44/88/77
f 64/134/103 67/140/103 65/136/103
f 65/137/104 67/141/104 66/138/104
f 39/75/5 3/7/5 59/121/5
f 61/126/5 58/120/5 6/12/5
f 39/75/5 59/121/5 61/126/5
f 15/29/24 50/105/24 53/109/24
f 40/79/25 16/32/25 50/105/25
f 12/24/40 6/12/40 60/124/40
f 18/35/44 60/125/44 59/122/44
f 49/103/52 38/74/52 15/30/52
f 15/30/52 48/101/52 52/108/52
f 9/17/67 38/74/67 49/103/67
f 45/91/77 31/60/77 63/131/77
f 63/132/82 31/61/82 34/68/82
f 45/92/85 66/139/85 67/142/85
f 67/142/85 64/135/85 44/89/85
f 37/73/85 45/92/85 67/142/85
f 51/106/52 47/98/52 2/4/52
f 51/107/105 57/117/105 56/116/105
f 53/109/106 55/112/106 56/114/106
f 2/5/24 47/99/24 54/110/24
f 54/110/24 50/105/24 16/32/24
f 56/115/107 57/118/107 52/108/107
f 56/116/108 55/113/108 54/111/108
